<?xml version="1.0" standalone="no"?>
<!DOCTYPE svg PUBLIC "-//W3C//DTD SVG 20010904//EN"
 "http://www.w3.org/TR/2001/REC-SVG-20010904/DTD/svg10.dtd">
<svg version="1.0" xmlns="http://www.w3.org/2000/svg"
 width="260.000000pt" height="260.000000pt" viewBox="0 0 260.000000 260.000000"
 preserveAspectRatio="xMidYMid meet">
<metadata>
Created by potrace 1.11, written by Peter Selinger 2001-2013
</metadata>
<g transform="translate(0.000000,260.000000) scale(0.100000,-0.100000)"
fill="#000000" stroke="none">
<path d="M0 2531 c0 -64 2 -70 22 -73 15 -2 31 -18 46 -45 23 -43 24 -43 65
-35 23 4 66 7 96 7 52 0 55 -1 62 -30 5 -16 5 -33 1 -37 -4 -4 -68 -17 -141
-28 -73 -11 -137 -22 -142 -26 -5 -3 -9 -32 -9 -65 l0 -61 43 2 c23 1 49 1 57
1 34 -3 -16 -21 -57 -21 l-43 0 0 -1060 0 -1060 142 0 c148 0 181 7 154 29 -8
7 -20 10 -26 6 -18 -11 -84 18 -122 54 -89 83 -19 100 202 52 76 -17 174 -14
197 6 24 22 43 56 43 78 0 17 -121 138 -155 154 -87 42 -138 60 -188 66 -77 9
-106 24 -97 50 19 50 189 175 237 175 11 0 23 69 23 130 0 36 1 38 42 43 27 4
54 0 77 -10 47 -20 68 -20 113 2 32 16 43 17 76 7 24 -7 44 -22 52 -38 8 -14
22 -30 32 -35 15 -8 19 -4 24 31 l7 40 52 0 c29 0 66 3 83 6 28 6 30 4 26 -17
-4 -22 -4 -22 5 -3 8 18 18 21 93 21 55 1 93 7 113 17 17 9 39 16 50 16 26 0
45 18 45 42 0 17 46 48 71 48 6 0 20 12 32 26 11 14 40 34 64 45 23 10 43 23
43 29 0 6 17 18 38 26 20 9 48 26 62 39 14 12 35 26 48 30 36 11 27 33 -15 34
-21 0 -65 5 -98 10 -35 5 -67 5 -77 0 -25 -13 -38 -11 -32 5 3 9 -2 16 -13 18
-22 5 -89 -28 -96 -47 -3 -7 -22 -18 -42 -25 -35 -12 -54 -22 -148 -82 -23
-15 -44 -23 -45 -17 -6 15 16 36 46 44 15 3 38 17 52 30 25 23 95 57 103 49 2
-2 60 44 128 102 l124 105 54 -6 c29 -4 94 -15 145 -25 83 -16 93 -16 118 -1
32 18 35 32 10 54 -15 13 -36 15 -134 11 -118 -6 -143 1 -119 30 14 17 -21 52
-41 40 -7 -5 -75 -59 -150 -122 -100 -82 -144 -113 -160 -111 -13 2 -44 -9
-69 -24 -25 -15 -50 -27 -54 -27 -5 0 -16 -6 -24 -14 -9 -7 -26 -17 -39 -21
l-22 -6 23 25 c14 14 32 26 42 26 24 0 75 32 75 47 0 31 -67 9 -233 -75 -94
-48 -191 -102 -215 -119 -23 -17 -66 -37 -95 -43 -28 -7 -59 -18 -67 -25 -16
-14 -102 -46 -108 -41 -2 2 20 17 49 34 l53 30 -47 22 c-61 29 -103 80 -127
155 -10 33 -19 52 -19 42 -1 -12 -7 -17 -18 -15 -25 5 -22 32 4 36 14 2 27 16
38 45 40 102 110 151 210 151 42 -1 73 -7 104 -23 43 -22 45 -22 82 -5 49 21
63 12 17 -12 -18 -9 -34 -18 -36 -19 -1 -1 9 -23 24 -48 22 -41 25 -56 22
-117 -2 -39 -2 -70 0 -70 2 0 30 15 63 32 61 34 69 49 29 58 -21 5 -15 11 46
45 48 28 70 47 72 63 3 19 -47 230 -123 512 -14 52 -55 212 -91 355 -36 143
-72 284 -80 313 l-15 52 -370 0 -369 0 0 -69z m610 19 c0 -5 -10 -10 -22 -10
-19 0 -20 2 -8 10 19 13 30 13 30 0z m-360 -120 c0 -11 -4 -20 -9 -20 -14 0
-23 18 -16 30 10 17 25 11 25 -10z m-50 -20 c0 -5 -4 -10 -10 -10 -5 0 -10 5
-10 10 0 6 5 10 10 10 6 0 10 -4 10 -10z m520 -444 c0 -11 -19 -15 -25 -6 -3
5 1 10 9 10 9 0 16 -2 16 -4z m-396 -760 c-4 -9 -14 -16 -23 -14 -23 5 -26 35
-4 40 24 6 35 -5 27 -26z m926 4 c0 -5 -4 -10 -10 -10 -5 0 -10 5 -10 10 0 6
5 10 10 10 6 0 10 -4 10 -10z m247 -46 c10 -10 25 -13 44 -9 17 4 29 2 29 -3
0 -16 -21 -20 -59 -11 -37 8 -75 -2 -88 -23 -4 -8 -26 -22 -48 -32 -22 -11
-44 -25 -48 -32 -4 -7 -27 -22 -50 -32 -23 -11 -51 -29 -61 -41 -11 -11 -27
-21 -37 -21 -10 0 -21 -4 -24 -10 -3 -5 -15 -10 -26 -10 -27 0 -19 24 9 28 11
2 40 21 64 43 24 21 49 39 56 39 14 0 32 13 60 43 9 9 23 17 30 17 8 0 31 13
51 29 56 44 75 49 98 25z m-117 -4 c0 -5 -14 -10 -31 -10 -17 0 -28 4 -24 10
3 6 17 10 31 10 13 0 24 -4 24 -10z m-360 -9 c0 -12 -20 -25 -27 -18 -7 7 6
27 18 27 5 0 9 -4 9 -9z m440 -65 c0 -11 -19 -15 -25 -6 -3 5 1 10 9 10 9 0
16 -2 16 -4z m-435 -216 c-3 -5 -12 -10 -18 -10 -7 0 -6 4 3 10 19 12 23 12
15 0z"/>
<path d="M964 1954 c28 -85 164 -425 169 -425 8 0 93 99 240 277 l67 82 -88
16 c-48 9 -145 25 -217 37 -71 11 -141 23 -154 26 -19 5 -22 3 -17 -13z m334
-118 c3 -3 -13 -25 -34 -48 -22 -24 -52 -60 -68 -81 -16 -21 -33 -36 -38 -35
-11 4 -77 165 -78 189 0 15 10 14 106 -2 59 -10 109 -21 112 -23z"/>
<path d="M2103 1698 c-96 -55 -113 -72 -43 -44 46 18 50 19 49 9 -4 -27 3 -63
11 -58 6 3 10 2 10 -4 0 -5 -4 -12 -10 -16 -5 -3 -7 -12 -3 -21 3 -8 -3 -21
-13 -30 -41 -31 -136 -84 -144 -79 -4 3 -6 -4 -3 -14 5 -18 8 -18 51 10 154
97 421 278 415 282 -5 3 -57 7 -118 11 l-110 6 -92 -52z"/>
<path d="M1828 1612 c-79 -38 -92 -49 -78 -71 5 -9 30 0 94 36 78 43 97 63 70
69 -5 1 -44 -14 -86 -34z"/>
<path d="M1640 1445 c-14 -8 -20 -14 -14 -15 5 0 19 7 30 15 24 18 16 19 -16
0z"/>
<path d="M554 1371 c-36 -22 -66 -80 -68 -131 -1 -72 64 -130 146 -130 38 0
54 6 82 30 81 72 70 182 -24 230 -49 25 -96 25 -136 1z m4 -59 c2 -14 -2 -22
-12 -22 -19 0 -29 17 -22 36 8 22 30 12 34 -14z"/>
<path d="M1545 1339 c-16 -26 98 -57 275 -75 l65 -6 -20 20 c-15 15 -54 26
-168 44 -82 13 -150 21 -152 17z"/>
<path d="M1868 1313 c7 -3 16 -2 19 1 4 3 -2 6 -13 5 -11 0 -14 -3 -6 -6z"/>
<path d="M2093 1273 c9 -2 23 -2 30 0 6 3 -1 5 -18 5 -16 0 -22 -2 -12 -5z"/>
<path d="M2163 1263 c9 -2 23 -2 30 0 6 3 -1 5 -18 5 -16 0 -22 -2 -12 -5z"/>
<path d="M2218 1253 c6 -2 18 -2 25 0 6 3 1 5 -13 5 -14 0 -19 -2 -12 -5z"/>
<path d="M2050 1241 c0 -13 20 -18 110 -30 41 -6 149 -22 239 -36 190 -29 201
-30 201 -11 0 10 -19 16 -67 21 -38 3 -108 13 -158 20 -125 20 -304 45 -315
45 -6 0 -10 -4 -10 -9z"/>
<path d="M2528 1203 c7 -3 16 -2 19 1 4 3 -2 6 -13 5 -11 0 -14 -3 -6 -6z"/>
<path d="M1654 1131 c-38 -27 -82 -60 -99 -73 -16 -14 -41 -31 -55 -38 -14 -7
-43 -28 -64 -47 -22 -18 -44 -33 -49 -33 -10 0 -90 -68 -95 -82 -2 -4 19 -5
47 -1 34 4 51 2 51 -5 0 -7 7 -9 18 -5 28 11 117 70 132 88 7 9 30 25 50 35
20 10 42 26 49 34 7 9 39 30 70 48 61 35 141 97 141 110 0 5 -9 4 -19 -2 -28
-15 -51 -12 -51 5 0 31 -56 16 -126 -34z"/>
<path d="M1964 1122 c-12 -9 -27 -27 -34 -40 -11 -22 -13 -22 -29 -8 -10 9
-27 16 -38 16 -25 0 -93 -28 -93 -38 0 -7 30 -25 63 -38 25 -9 21 -24 -8 -24
-13 0 -39 -13 -57 -29 -31 -27 -37 -28 -78 -21 -48 9 -45 10 -148 -65 l-33
-24 28 -3 c23 -2 29 -8 31 -35 3 -30 22 -48 22 -22 0 8 5 8 15 -1 12 -10 15
-10 16 1 3 54 13 67 40 51 18 -11 29 -6 102 49 45 34 99 76 119 93 56 47 131
106 147 116 12 7 12 11 2 24 -17 21 -41 20 -67 -2z"/>
<path d="M450 790 c0 -5 9 -10 19 -10 11 0 23 5 26 10 4 6 -5 10 -19 10 -14 0
-26 -4 -26 -10z"/>
<path d="M700 790 c0 -5 5 -10 11 -10 5 0 7 5 4 10 -3 6 -8 10 -11 10 -2 0 -4
-4 -4 -10z"/>
<path d="M1492 778 c5 -32 28 -35 28 -4 0 17 -5 26 -16 26 -10 0 -14 -7 -12
-22z"/>
<path d="M2040 480 c-152 -11 -182 -27 -184 -98 -1 -27 -7 -57 -14 -65 -26
-30 18 -117 59 -117 10 0 20 -4 23 -9 3 -5 18 -11 33 -14 43 -8 93 -23 153
-46 30 -12 63 -21 73 -21 11 0 20 -10 24 -30 5 -25 12 -34 26 -29 1 0 20 -6
42 -14 57 -22 159 -37 248 -37 l77 0 0 132 0 132 -37 -36 c-21 -20 -49 -41
-62 -48 -21 -11 -26 -10 -38 6 -7 10 -13 21 -13 26 0 13 -81 140 -117 185 -67
81 -116 95 -293 83z"/>
</g>
</svg>
